HIERARCHY
ROOT Hips
{
	OFFSET 0.000000 0.000000 0.000000
	CHANNELS 6 Xposition Yposition Zposition Xrotation Yrotation Zrotation
	JOINT LeftUpLeg_virtual
	{
		OFFSET 0.000000 0.000000 0.000000
		CHANNELS 3 Xrotation Yrotation Zrotation
		JOINT LeftUpLeg
		{
			OFFSET 15.427100 -6.655098 0.678600
			CHANNELS 3 Xrotation Yrotation Zrotation
			JOINT LeftLeg
			{
				OFFSET 4.081073 -39.591068 13.024000
				CHANNELS 3 Xrotation Yrotation Zrotation
				JOINT LeftFoot
				{
					OFFSET -4.081074 -37.707932 -15.979700
					CHANNELS 3 Xrotation Yrotation Zrotation
					JOINT LeftToeBase
					{
						OFFSET 5.346399 -15.068900 20.645000
						CHANNELS 3 Xrotation Yrotation Zrotation
						JOINT LeftToe_End
						{
							OFFSET 2.754700 0.931300 11.300900
							CHANNELS 3 Xrotation Yrotation Zrotation
							End Site
							{
								OFFSET 0 0 0
							}
						}
					}
				}
			}
		}
	}
	JOINT RightUpLeg_virtual
	{
		OFFSET 0.000000 0.000000 0.000000
		CHANNELS 3 Xrotation Yrotation Zrotation
		JOINT RightUpLeg
		{
			OFFSET -15.569500 -6.655098 0.678600
			CHANNELS 3 Xrotation Yrotation Zrotation
			JOINT RightLeg
			{
				OFFSET -4.081825 -39.591045 13.023800
				CHANNELS 3 Xrotation Yrotation Zrotation
				JOINT RightFoot
				{
					OFFSET 4.081824 -37.707954 -15.979600
					CHANNELS 3 Xrotation Yrotation Zrotation
					JOINT RightToeBase
					{
						OFFSET -5.346400 -15.068900 20.645000
						CHANNELS 3 Xrotation Yrotation Zrotation
						JOINT RightToe_End
						{
							OFFSET -2.754700 0.931300 11.300900
							CHANNELS 3 Xrotation Yrotation Zrotation
							End Site
							{
								OFFSET 0 0 0
							}
						}
					}
				}
			}
		}
	}
	JOINT Spine_virtual
	{
		OFFSET 0.000000 0.000000 0.000000
		CHANNELS 3 Xrotation Yrotation Zrotation
		JOINT Spine
		{
			OFFSET -0.279200 12.230698 -2.892100
			CHANNELS 3 Xrotation Yrotation Zrotation
			JOINT Spine1
			{
				OFFSET -0.232667 10.192268 -1.242267
				CHANNELS 3 Xrotation Yrotation Zrotation
				JOINT Spine1_split
				{
					OFFSET -0.232667 10.192268 -1.242267
					CHANNELS 3 Xrotation Yrotation Zrotation
					JOINT Spine2
					{
						OFFSET -0.232667 10.192268 -1.242267
						CHANNELS 3 Xrotation Yrotation Zrotation
						JOINT Neck_virtual
						{
							OFFSET 0.000000 0.000000 0.000000
							CHANNELS 3 Xrotation Yrotation Zrotation
							JOINT Neck
							{
								OFFSET -0.418800 17.814194 8.416900
								CHANNELS 3 Xrotation Yrotation Zrotation
								JOINT Head
								{
									OFFSET 0.000000 7.031097 3.806800
									CHANNELS 3 Xrotation Yrotation Zrotation
									JOINT HeadTop_End
									{
										OFFSET 0.000000 24.646606 12.978600
										CHANNELS 3 Xrotation Yrotation Zrotation
										End Site
										{
											OFFSET 0 0 0
										}
									}
								}
							}
						}
						JOINT LeftShoulder_virtual
						{
							OFFSET 0.000000 0.000000 0.000000
							CHANNELS 3 Xrotation Yrotation Zrotation
							JOINT LeftShoulder
							{
								OFFSET 8.476499 7.247704 -3.868750
								CHANNELS 3 Xrotation Yrotation Zrotation
								JOINT LeftShoulder_split
								{
									OFFSET 8.476499 7.247704 -3.868750
									CHANNELS 3 Xrotation Yrotation Zrotation
									JOINT LeftArm
									{
										OFFSET 9.308998 -2.777710 0.208600
										CHANNELS 3 Xrotation Yrotation Zrotation
										JOINT LeftForeArm
										{
											OFFSET 29.972298 0.000000 0.000000
											CHANNELS 3 Xrotation Yrotation Zrotation
											JOINT LeftHand
											{
												OFFSET 26.026505 0.000000 0.000000
												CHANNELS 3 Xrotation Yrotation Zrotation
												End Site
												{
													OFFSET 0 0 0
												}
											}
										}
									}
								}
							}
						}
						JOINT RightShoulder_virtual
						{
							OFFSET 0.000000 0.000000 0.000000
							CHANNELS 3 Xrotation Yrotation Zrotation
							JOINT RightShoulder
							{
								OFFSET -7.570500 7.247704 -3.868750
								CHANNELS 3 Xrotation Yrotation Zrotation
								JOINT RightShoulder_split
								{
									OFFSET -7.570500 7.247704 -3.868750
									CHANNELS 3 Xrotation Yrotation Zrotation
									JOINT RightArm
									{
										OFFSET -9.308998 -2.777710 0.208500
										CHANNELS 3 Xrotation Yrotation Zrotation
										JOINT RightForeArm
										{
											OFFSET -29.972300 0.000000 0.000000
											CHANNELS 3 Xrotation Yrotation Zrotation
											JOINT RightHand
											{
												OFFSET -26.026505 0.000000 0.000000
												CHANNELS 3 Xrotation Yrotation Zrotation
												End Site
												{
													OFFSET 0 0 0
												}
											}
										}
									}
								}
							}
						}
					}
				}
			}
		}
	}
}
MOTION
Frames: 6
Frame Time: 0.03333333
-3.936647 77.835732 73.124443 0.000000 0.000000 0.000000 25.759483 16.079835 -7.929124 10.530739 11.010904 2.930410 4.395633 13.664014 3.684423 -17.459459 9.983728 -27.175953 -18.653351 -6.151141 2.337046 0.000000 0.000000 0.000000 26.522152 14.938747 -7.776544 -69.339534 -10.454201 4.787071 58.774755 -32.409234 -11.869163 -0.933625 2.087575 -1.141757 -9.593253 5.897244 5.332306 0.000000 0.000000 0.000000 29.053904 9.466728 -7.038232 5.224398 0.394907 2.506178 8.747205 -0.552476 3.818347 1.210251 -1.508785 1.473198 0.000000 0.000000 0.000000 10.489080 0.020375 3.257310 -6.935565 -0.878992 -0.271244 -6.449476 6.304287 2.975719 0.000000 0.000000 0.000000 11.878906 -0.466170 3.407196 2.384411 -20.103977 2.940883 2.064505 -1.434274 -4.006196 -40.226273 -22.452013 -40.095765 108.747738 -63.641961 120.266791 0.000000 0.000000 0.000000 10.589534 0.125071 3.887506 3.274473 11.187145 -1.162648 2.848118 7.807277 0.753146 -45.911275 15.032879 35.214198 121.798119 45.583853 -143.260158 0.000000 0.000000 0.000000 
-3.974687 77.572174 73.487671 0.000000 0.000000 0.000000 26.023683 16.180076 -7.965440 9.933303 11.050724 3.148312 5.326449 13.650952 3.644053 -17.704943 10.043300 -27.357730 -19.631529 -6.306040 2.378347 0.000000 0.000000 0.000000 26.857619 15.029541 -7.826370 -70.177830 -10.837878 4.689829 59.572582 -32.357536 -12.109992 -1.050010 2.273306 -1.052390 -10.420937 5.742192 5.467479 0.000000 0.000000 0.000000 29.322897 9.582451 -7.099945 5.213671 0.484642 2.564252 8.262718 -0.520557 3.803045 1.211140 -1.530145 1.459315 0.000000 0.000000 0.000000 10.035010 0.045642 3.260377 -7.142321 -0.842647 -0.373480 -6.463321 6.092148 2.975392 0.000000 0.000000 0.000000 11.380051 -0.428380 3.392496 2.507041 -20.176908 3.377330 2.108267 -1.437190 -3.930441 -40.679859 -22.611647 -39.976623 106.937150 -64.141009 118.530515 0.000000 0.000000 0.000000 10.117502 0.155343 3.864527 3.331082 10.968642 -1.600654 2.884160 7.797593 0.702389 -46.632898 15.053295 35.721643 121.325729 45.990860 -142.542974 0.000000 0.000000 0.000000 
-4.014233 77.305138 73.852440 0.000000 0.000000 0.000000 26.303559 16.267467 -8.006625 9.315141 11.073036 3.394253 6.230224 13.670286 3.595429 -17.948065 10.114789 -27.549749 -20.520175 -6.458607 2.400287 0.000000 0.000000 0.000000 27.222880 15.105561 -7.882174 -70.974094 -11.285973 4.547886 60.210078 -32.301109 -12.394451 -1.175879 2.471295 -0.884879 -11.157228 5.618104 5.564628 0.000000 0.000000 0.000000 29.615226 9.675672 -7.162369 5.231433 0.561065 2.606499 7.753105 -0.485788 3.794860 1.216864 -1.539477 1.453475 0.000000 0.000000 0.000000 9.549688 0.069455 3.267273 -7.355426 -0.790838 -0.492401 -6.502448 5.904000 2.980056 0.000000 0.000000 0.000000 10.853100 -0.391265 3.381445 2.617687 -20.232323 3.788360 2.152432 -1.452379 -3.847528 -41.261934 -22.845168 -39.941324 104.733793 -64.638820 116.371465 0.000000 0.000000 0.000000 9.614831 0.186032 3.845622 3.382554 10.743101 -2.061524 2.942898 7.799145 0.662278 -47.452422 15.015348 36.241134 120.725684 46.475927 -141.697547 0.000000 0.000000 0.000000 
-4.047105 77.018105 74.214508 0.000000 0.000000 0.000000 26.619947 16.323971 -8.062817 8.679804 11.066324 3.685181 7.118207 13.706552 3.536093 -18.186210 10.188918 -27.778948 -21.337820 -6.613955 2.417637 0.000000 0.000000 0.000000 27.613758 15.168349 -7.953884 -71.719616 -11.804427 4.377613 60.754621 -32.264933 -12.685723 -1.399766 2.664673 -0.727833 -11.752486 5.522015 5.641352 0.000000 0.000000 0.000000 29.938556 9.727857 -7.223693 5.273711 0.625710 2.630695 7.221686 -0.450222 3.786737 1.216156 -1.539719 1.455014 0.000000 0.000000 0.000000 9.025882 0.090826 3.269348 -7.557486 -0.724978 -0.619786 -6.577322 5.743073 3.000676 0.000000 0.000000 0.000000 10.297546 -0.357875 3.367177 2.716628 -20.270297 4.192560 2.189101 -1.471582 -3.773647 -41.941798 -23.161644 -39.979116 102.205100 -65.103540 113.852594 0.000000 0.000000 0.000000 9.076921 0.215182 3.824362 3.431115 10.521066 -2.532048 3.017127 7.795384 0.630659 -48.326457 14.867295 36.771522 120.000290 47.034148 -140.736663 0.000000 0.000000 0.000000 
-4.081590 76.696037 74.572021 0.000000 0.000000 0.000000 26.983952 16.337567 -8.129658 8.033923 11.028490 4.032832 8.003657 13.747860 3.471317 -18.432049 10.256580 -28.052215 -22.157740 -6.780732 2.455824 0.000000 0.000000 0.000000 28.021094 15.218889 -8.040003 -72.440174 -12.391014 4.184341 61.334867 -32.277630 -12.917299 -1.728600 2.825973 -0.665706 -12.262718 5.437488 5.733176 0.000000 0.000000 0.000000 30.288419 9.745723 -7.282308 5.329189 0.679301 2.637888 6.675162 -0.415429 3.772667 1.202799 -1.551360 1.467007 0.000000 0.000000 0.000000 8.466011 0.109275 3.261190 -7.733476 -0.653641 -0.748640 -6.692314 5.595449 3.039103 0.000000 0.000000 0.000000 9.713791 -0.327714 3.345968 2.808745 -20.303270 4.610364 2.237379 -1.483787 -3.714665 -42.684598 -23.547700 -40.049494 99.467690 -65.521342 111.095759 0.000000 0.000000 0.000000 8.507333 0.242541 3.794628 3.477590 10.305573 -3.009057 3.104428 7.789112 0.598806 -49.213419 14.604708 37.313805 119.194424 47.638193 -139.713118 0.000000 0.000000 0.000000 
-4.115567 76.330376 74.924301 0.000000 0.000000 0.000000 27.393121 16.319105 -8.211949 7.389609 10.941418 4.434064 8.905308 13.771322 3.412932 -18.668937 10.300082 -28.410962 -23.065289 -6.963797 2.529374 0.000000 0.000000 0.000000 28.429315 15.251742 -8.133172 -73.189295 -13.012189 3.973995 62.031102 -32.331151 -13.062074 -2.083351 2.945139 -0.701212 -12.814181 5.341257 5.859525 0.000000 0.000000 0.000000 30.658653 9.731814 -7.337424 5.381155 0.722702 2.629463 6.118893 -0.381507 3.750825 1.171217 -1.574872 1.477182 0.000000 0.000000 0.000000 7.880624 0.124389 3.241055 -7.872816 -0.587839 -0.875089 -6.844847 5.446007 3.096108 0.000000 0.000000 0.000000 9.109536 -0.301686 3.318075 2.896169 -20.338782 5.049345 2.275018 -1.476073 -3.675173 -43.447721 -23.970438 -40.103247 96.645415 -65.898198 108.232947 0.000000 0.000000 0.000000 7.913619 0.265568 3.756187 3.521050 10.105431 -3.482098 3.193980 7.766733 0.552378 -50.073773 14.248162 37.861699 118.371386 48.250184 -138.691130 0.000000 0.000000 0.000000 
